<svg width="32" height="32" viewBox="0 0 32 32" fill="none" xmlns="http://www.w3.org/2000/svg">
<path d="M12.4603 25.6899C11.2114 25.6899 10.1982 26.8792 10.1982 28.345C10.1982 29.8109 11.2114 31.0001 12.4603 31.0001C13.7092 31.0001 14.7224 29.8109 14.7224 28.345C14.7224 26.8792 13.7092 25.6899 12.4603 25.6899Z" fill="white" stroke="white"/>
<path d="M22.9169 25.6899C21.668 25.6899 20.6548 26.8792 20.6548 28.345C20.6548 29.8109 21.668 31.0001 22.9169 31.0001C24.1658 31.0001 25.179 29.8109 25.179 28.345C25.179 26.8792 24.1688 25.6899 22.9169 25.6899Z" fill="white" stroke="white"/>
<path d="M30.8114 8.0994C30.6155 7.76886 30.2971 7.57485 29.9543 7.57485H8.46891C8.35872 7.57485 8.25464 7.6 8.15363 7.63593L7.13124 1.97006C7.03023 1.4024 6.60169 1 6.10886 1H2.04381C1.46834 1 1 1.54611 1 2.22515C1 2.9006 1.46834 3.4503 2.04381 3.4503H5.26402L8.70767 22.5353V22.5389V22.5425C8.71992 22.618 8.74135 22.6898 8.76583 22.7581C8.77196 22.7761 8.7842 22.7976 8.79032 22.8156C8.81175 22.8659 8.83012 22.9126 8.85767 22.9593C8.86991 22.9808 8.88521 22.9988 8.89746 23.0204C8.92195 23.0599 8.94643 23.0994 8.97705 23.1317C8.99235 23.1533 9.01072 23.1713 9.02908 23.1892C9.05663 23.2216 9.08724 23.2503 9.11785 23.2755C9.13928 23.2934 9.16071 23.3114 9.18213 23.3258C9.2158 23.3509 9.24948 23.3689 9.28315 23.3904C9.30458 23.4048 9.32906 23.4156 9.35049 23.4264C9.39028 23.4443 9.43314 23.4587 9.47599 23.4731C9.49436 23.4802 9.51272 23.4874 9.53415 23.491C9.59843 23.5054 9.66272 23.5162 9.73006 23.5162H9.73312H25.6933C26.1311 23.5162 26.5198 23.1964 26.6729 22.7186L30.9369 9.22755C31.0532 8.8503 31.0073 8.42994 30.8114 8.0994ZM24.9648 21.0659H10.578L8.58523 10.0252H28.4544L24.9648 21.0659Z" fill="white" stroke="white"/>
</svg>
